<svg width="20" height="20" viewBox="0 0 20 20" fill="none" xmlns="http://www.w3.org/2000/svg">
<path d="M2 20C1.45 20 0.979167 19.7939 0.5875 19.3816C0.195833 18.9693 0 18.4737 0 17.8947V6.31579C0 5.73684 0.195833 5.24123 0.5875 4.82895C0.979167 4.41667 1.45 4.21053 2 4.21053H6V2.10526C6 1.52632 6.19583 1.0307 6.5875 0.618421C6.97917 0.20614 7.45 0 8 0H12C12.55 0 13.0208 0.20614 13.4125 0.618421C13.8042 1.0307 14 1.52632 14 2.10526V4.21053H18C18.55 4.21053 19.0208 4.41667 19.4125 4.82895C19.8042 5.24123 20 5.73684 20 6.31579V17.8947C20 18.4737 19.8042 18.9693 19.4125 19.3816C19.0208 19.7939 18.55 20 18 20H2ZM8 4.21053H12V2.10526H8V4.21053ZM18 13.6842H13V15.7895H7V13.6842H2V17.8947H18V13.6842ZM9 13.6842H11V11.5789H9V13.6842ZM2 11.5789H7V9.47368H13V11.5789H18V6.31579H2V11.5789Z" fill="white"/>
</svg>
